<?xml version="1.0" standalone="no"?>
<!DOCTYPE svg PUBLIC "-//W3C//DTD SVG 20010904//EN"
 "http://www.w3.org/TR/2001/REC-SVG-20010904/DTD/svg10.dtd">
<svg version="1.0" xmlns="http://www.w3.org/2000/svg"
 width="600.000000pt" height="600.000000pt" viewBox="0 0 600.000000 600.000000"
 preserveAspectRatio="xMidYMid meet">
<metadata>
Created by potrace 1.11, written by Peter Selinger 2001-2013
</metadata>
<g transform="translate(0.000000,600.000000) scale(0.100000,-0.100000)"
fill="#000000" stroke="none">
<path d="M2927 5924 c-1 -1 -54 -5 -118 -8 -63 -4 -158 -13 -210 -21 -52 -8
-112 -17 -134 -20 -22 -4 -95 -20 -162 -36 -1046 -254 -1867 -1062 -2138
-2105 -45 -174 -62 -274 -84 -484 -9 -85 -7 -483 2 -530 3 -14 8 -52 12 -85 9
-84 12 -109 19 -142 4 -15 9 -41 12 -58 24 -139 115 -441 170 -563 180 -401
361 -668 640 -945 453 -451 1029 -736 1659 -822 22 -3 54 -7 70 -10 45 -7 250
-18 335 -18 89 1 299 12 320 18 8 2 38 6 65 10 84 10 178 25 215 35 19 5 48
11 63 14 43 8 203 54 297 87 293 102 622 284 861 476 131 105 336 309 440 438
73 90 210 285 216 308 3 9 9 17 14 17 5 0 9 5 9 11 0 6 9 23 20 39 27 37 141
267 178 360 94 230 168 513 197 745 20 169 25 455 11 615 -72 819 -472 1551
-1127 2065 -53 41 -101 75 -107 75 -6 0 -12 4 -14 9 -5 15 -234 154 -345 210
-181 90 -472 200 -598 225 -11 3 -53 12 -92 20 -40 9 -85 18 -100 21 -16 3
-37 7 -48 9 -11 2 -47 7 -80 11 -32 4 -67 8 -75 10 -39 7 -387 24 -393 19z
m513 -457 c0 -7 -13 -73 -30 -147 -16 -74 -32 -150 -35 -169 -3 -19 -7 -37 -9
-40 -2 -3 -7 -22 -10 -41 -8 -50 -14 -79 -21 -101 -6 -18 -18 -19 -235 -19
-179 0 -228 3 -225 13 2 6 7 28 10 47 3 19 8 42 10 50 2 8 4 21 4 28 1 9 34
12 131 12 96 0 132 3 134 13 2 6 11 46 19 87 9 41 26 121 38 178 l22 102 99 0
c72 0 98 -3 98 -13z m1456 -958 c8 -6 12 -15 9 -19 -4 -6 -35 -142 -49 -210
-2 -14 -15 -72 -27 -130 l-22 -106 -141 0 c-174 0 -252 -17 -394 -86 -88 -43
-117 -64 -197 -142 -167 -163 -255 -325 -300 -548 -8 -40 -28 -138 -45 -218
-17 -80 -33 -156 -36 -170 -6 -31 -42 -202 -54 -255 -5 -22 -21 -96 -35 -165
-14 -69 -32 -154 -40 -190 -24 -109 -94 -443 -101 -482 l-6 -38 -229 0 c-177
0 -229 3 -229 13 1 6 6 39 13 72 l13 60 130 3 130 3 37 177 c21 97 40 188 43
202 2 14 9 45 14 70 6 25 12 54 14 65 2 11 12 56 21 100 9 44 19 91 21 104 3
14 20 95 39 181 19 86 36 167 38 181 17 89 109 514 122 559 43 147 133 291
264 420 177 174 358 243 623 235 l116 -3 6 31 c6 29 9 47 20 102 2 11 9 41 15
68 6 26 14 64 17 85 3 20 8 41 11 46 8 12 172 -1 189 -15z m-896 -65 c-6 -14
-25 -37 -42 -52 -45 -37 -146 -139 -185 -187 l-32 -40 9 35 c5 19 11 46 14 60
25 130 38 196 42 202 3 5 50 8 104 8 l100 0 -10 -26z m-836 -282 c-35 -163
-72 -340 -84 -392 -11 -52 -23 -106 -26 -120 -5 -27 -21 -103 -28 -135 -2 -11
-14 -67 -26 -125 -12 -58 -31 -143 -41 -189 -11 -47 -22 -101 -25 -120 -3 -20
-23 -115 -45 -213 -21 -97 -41 -189 -44 -205 -2 -15 -12 -59 -20 -98 -8 -38
-22 -104 -31 -145 -9 -41 -17 -82 -19 -90 -2 -8 -11 -49 -20 -90 -9 -41 -19
-86 -21 -100 -3 -14 -21 -99 -40 -190 -20 -91 -38 -175 -40 -187 -2 -12 -15
-75 -29 -140 -14 -65 -35 -163 -46 -218 -56 -265 -121 -413 -232 -528 -96 -99
-176 -147 -317 -188 -92 -27 -148 -34 -285 -34 -149 0 -196 5 -203 23 -2 8 1
38 7 68 l12 54 42 0 c57 0 221 26 280 44 130 41 253 123 332 224 99 125 140
240 219 612 31 146 70 326 86 400 16 74 31 146 33 160 3 14 19 90 37 170 17
80 34 155 36 166 2 12 13 66 25 120 20 95 45 212 55 264 3 14 23 111 46 215
22 105 41 197 43 206 2 9 13 61 25 115 28 127 29 134 35 164 2 14 18 86 34
160 16 74 32 146 35 160 19 96 29 144 61 295 20 94 39 173 41 176 2 3 48 6
102 7 l98 1 -62 -297z"/>
</g>
</svg>
